<?xml version="1.0" encoding="iso-8859-1"?>
<!-- Generator: Adobe Illustrator 19.0.0, SVG Export Plug-In . SVG Version: 6.00 Build 0)  -->
<svg version="1.1" id="Capa_1" xmlns="http://www.w3.org/2000/svg" xmlns:xlink="http://www.w3.org/1999/xlink" x="0px" y="0px"
	 viewBox="0 0 512 512" style="enable-background:new 0 0 512 512;" xml:space="preserve">
<g>
	<path style="fill:#0D70B2;" d="M118.634,133.9c0.901,7.5-3.6,14.399-10.499,16.199L86.534,121.3l-10.5-79.001
		C75.133,35.4,68.835,30,61.335,30h-46.3c-8.401,0-15-6.599-15-15s6.599-15,15-15h46.3c22.2,0,40.8,15.901,44.399,37.8
		L118.634,133.9z"/>
	<path style="fill:#0D70B2;" d="M482.034,438c0,8.401-6.599,15-15,15h-331c-24.901,0-45-20.099-45-45s20.099-45,45-45l12.599-1.199
		l21,14.099l-6.301,14.7l-25.8,2.401c-9.901,0-16.5,6.599-16.5,15s6.599,15,15,15h331C475.435,423,482.034,429.599,482.034,438z"/>
</g>
<path style="fill:#18A7FC;" d="M503.633,198.1l-17.999,129.2c-3.6,20.7-20.099,36-40.499,37.8l-144.101,13.2l-135.601,12.299h-3.9
	c-22.5,0-41.4-15.599-44.7-37.8L98.234,211l25.201-23.699c1.5,1.8,2.699,4.199,2.999,6.599l20.1,154.4
	c0.901,7.5,8.401,12.9,16.201,12.299l31.8-2.999l-13.5-160.401c-0.601-8.099,5.4-15.298,13.801-16.199
	c8.099-0.901,15.298,5.4,16.199,13.801l13.5,160.099l61.5-5.7V196c0-7.8,5.7-14.099,13.2-15h1.8c8.401,0,15,6.599,15,15v150.5
	l62.199-5.4l13.801-146.6c0.901-8.101,8.401-14.401,16.5-13.5c8.101,0.901,14.101,8.101,13.5,16.5l-13.5,140.6l33.9-2.999
	c6.899-0.601,12.599-5.7,13.801-12.599L473.934,193.9c0.901-8.101,8.401-13.801,16.8-12.9
	C498.834,182.199,504.534,190,503.633,198.1z"/>
<path style="fill:#1689FC;" d="M503.633,198.1l-17.999,129.2c-3.6,20.7-20.099,36-40.499,37.8l-144.101,13.2V181
	c8.401,0,15,6.599,15,15v150.5l62.199-5.4l13.801-146.6c0.901-8.101,8.401-14.401,16.5-13.5c8.101,0.901,14.101,8.101,13.5,16.5
	l-13.5,140.6l33.9-2.999c6.899-0.601,12.599-5.7,13.801-12.599L473.934,193.9c0.901-8.101,8.401-13.801,16.8-12.9
	C498.834,182.199,504.534,190,503.633,198.1z"/>
<path style="fill:#18A7FC;" d="M508.234,126.099c-2.999-3.3-7.2-5.099-11.4-5.099h-410.3l11.7,90h403.301l10.299-72.9
	C512.435,133.9,510.933,129.401,508.234,126.099z"/>
<path style="fill:#1689FC;" d="M511.834,138.1L501.535,211H301.034v-90h195.8c4.2,0,8.401,1.8,11.4,5.099
	C510.933,129.401,512.435,133.9,511.834,138.1z"/>
<path style="fill:#095C92;" d="M482.034,438c0,8.401-6.599,15-15,15h-166v-30h166C475.435,423,482.034,429.599,482.034,438z"/>
<path style="fill:#1689FC;" d="M377.034,512c-24.814,0-45-19.186-45-44s20.186-45,45-45s45,20.186,45,45S401.849,512,377.034,512z"
	/>
<path style="fill:#A8AFF1;" d="M377.034,483c-8.276,0-15-6.724-15-15s6.724-15,15-15s15,6.724,15,15S385.311,483,377.034,483z"/>
<path style="fill:#18A7FC;" d="M196.034,512c-24.814,0-45-19.186-45-44s20.186-45,45-45s45,20.186,45,45S220.849,512,196.034,512z"
	/>
<path style="fill:#C5C9F7;" d="M196.034,483c-8.276,0-15-6.724-15-15s6.724-15,15-15s15,6.724,15,15S204.311,483,196.034,483z"/>
<g>
</g>
<g>
</g>
<g>
</g>
<g>
</g>
<g>
</g>
<g>
</g>
<g>
</g>
<g>
</g>
<g>
</g>
<g>
</g>
<g>
</g>
<g>
</g>
<g>
</g>
<g>
</g>
<g>
</g>
</svg>
